<?xml version="1.0" encoding="UTF-8"?>
<svg version="1.1" xmlns="http://www.w3.org/2000/svg" fill="currentColor" width="100" height="88">
  <rect width="100%" height="100%" fill="#44a579" />
  <path d="M0 0 C-1.43768948 4.50310786 -3.9394877 7.55171551 -7.125 10.9375 C-7.86423706 11.73136108 -7.86423706 11.73136108 -8.6184082 12.54125977 C-12.42925343 16.55766155 -16.39003576 19.92799544 -21 23 C-21.59377441 23.40581299 -22.18754883 23.81162598 -22.79931641 24.22973633 C-27.72214539 27.46972865 -32.5624124 29.53593974 -38.1875 31.25 C-39.01032471 31.50668457 -39.83314941 31.76336914 -40.6809082 32.02783203 C-47.46688602 34.04637457 -53.89820132 34.97449983 -61 35 C-57.68923139 48.96829043 -51.24486823 59.27263959 -40 68 C-39.01 68.495 -39.01 68.495 -38 69 C-38 69.66 -38 70.32 -38 71 C-37.319375 71.226875 -36.63875 71.45375 -35.9375 71.6875 C-32.80836205 73.08562547 -30.36076623 74.81090901 -27.6484375 76.87890625 C-25.87939685 78.19132292 -25.87939685 78.19132292 -23 79 C-23.495 80.485 -23.495 80.485 -24 82 C-25.33496612 81.73733305 -26.66788705 81.46427347 -28 81.1875 C-29.11375 80.96126953 -29.11375 80.96126953 -30.25 80.73046875 C-43.66260851 77.16774461 -59.23528662 69.52914147 -66.8347168 57.56958008 C-68.76129453 54.12595168 -70.44283917 50.62388784 -72 47 C-72.7115625 45.46279297 -72.7115625 45.46279297 -73.4375 43.89453125 C-76.1302666 37.41506163 -76.75666168 30.97164281 -77 24 C-76.11441406 24.10699219 -75.22882813 24.21398437 -74.31640625 24.32421875 C-48.80386903 26.79317397 -25.25675153 16.98999613 -5 2 C-2 0 -2 0 0 0 Z " fill="#FFFFFF" transform="translate(94,4)"/>
  <path d="M0 0 C0.66 0.33 1.32 0.66 2 1 C1.08856792 2.87755009 0.1705881 4.75192223 -0.75 6.625 C-1.51570313 8.19121094 -1.51570313 8.19121094 -2.296875 9.7890625 C-5.65754512 16.1250048 -8.89404129 20.13624929 -14.75 24.125 C-15.37543701 24.55949463 -16.00087402 24.99398926 -16.64526367 25.44165039 C-23.76178961 30.31493362 -30.75308398 33.48010899 -39 36 C-38.5565336 45.75626089 -32.83178851 54.45297957 -27 62 C-29 63 -29 63 -31.3125 62.375 C-34.55605689 60.71550578 -36.45504189 58.60802558 -39 56 C-39.90878906 55.13761719 -40.81757812 54.27523437 -41.75390625 53.38671875 C-47.04192435 48.30463181 -51.2570778 43.91693424 -54 37 C-54.61875 35.6078125 -54.61875 35.6078125 -55.25 34.1875 C-56 32 -56 32 -56 29 C-55.42668945 28.87471924 -54.85337891 28.74943848 -54.26269531 28.62036133 C-34.28667576 24.20328119 -17.11186889 18.56337541 -3 3 C-2.0046403 1.99538114 -1.00593456 0.99403001 0 0 Z " fill="#FFFFFF" transform="translate(96,15)"/>
  <path d="M0 0 C3.3125 1.75 3.3125 1.75 6 4 C6.86625 4.5775 7.7325 5.155 8.625 5.75 C11.77410625 8.73336382 13.28817551 12.0599347 15 16 C6.17181871 21.16565045 -5.50145363 18.88105419 -15 17 C-15 14.69 -15 12.38 -15 10 C-18.63 9.01 -22.26 8.02 -26 7 C-24 4 -24 4 -22.01171875 3.59375 C-20.86123047 3.54734375 -20.86123047 3.54734375 -19.6875 3.5 C-16.58092312 3.2682395 -15.2345736 3.15036769 -12.5625 1.4375 C-8.51996911 -0.83026123 -4.5245003 -0.66194458 0 0 Z M-6 4 C-6 4.66 -6 5.32 -6 6 C-5.34 5.67 -4.68 5.34 -4 5 C-4.66 4.67 -5.32 4.34 -6 4 Z " fill="#FFFFFF" transform="translate(31,6)"/>
  <path d="M0 0 C2.30367627 3.03376444 4.50861299 6.12555825 6.6875 9.25 C7.31011719 10.14203125 7.93273437 11.0340625 8.57421875 11.953125 C9.27998047 12.96632813 9.27998047 12.96632813 10 14 C8 15 8 15 5.6875 14.375 C0.30044348 11.61883155 -3.2405571 6.61874414 -7 2 C-4.50638429 3.20381448 -2.31856917 4.45428722 0 6 C0 4.02 0 2.04 0 0 Z " fill="#FFFFFF" transform="translate(59,63)"/>
  <path d="M0 0 C-1.3937282 4.43458973 -3.60582235 6.87378374 -7 10 C-7.33 9.34 -7.66 8.68 -8 8 C-10.02463255 7.34786708 -10.02463255 7.34786708 -12 7 C-10.3790787 5.82767315 -8.75313167 4.6622923 -7.125 3.5 C-6.22007813 2.8503125 -5.31515625 2.200625 -4.3828125 1.53125 C-2 0 -2 0 0 0 Z " fill="#FFFFFF" transform="translate(94,4)"/>
  <path d="M0 0 C0.91007812 0.00902344 1.82015625 0.01804687 2.7578125 0.02734375 C3.45648438 0.03894531 4.15515625 0.05054688 4.875 0.0625 C4.875 1.0525 4.875 2.0425 4.875 3.0625 C4.215 3.0625 3.555 3.0625 2.875 3.0625 C2.875 2.4025 2.875 1.7425 2.875 1.0625 C1.658125 1.371875 0.44125 1.68125 -0.8125 2 C-3.9032972 2.77407177 -6.99234334 3.47512688 -10.125 4.0625 C-6.74032128 0.52397224 -4.89499091 -0.06275629 0 0 Z M-1.125 3.0625 C0.195 3.3925 1.515 3.7225 2.875 4.0625 C1.555 4.0625 0.235 4.0625 -1.125 4.0625 C-1.125 3.7325 -1.125 3.4025 -1.125 3.0625 Z " fill="#FFFFFF" transform="translate(26.125,5.9375)"/>
  <path d="M0 0 C1.485 0.99 1.485 0.99 3 2 C3 2.99 3 3.98 3 5 C3.99 5.33 4.98 5.66 6 6 C5.67 7.32 5.34 8.64 5 10 C4.16121545 8.71186658 3.32913217 7.41936744 2.5 6.125 C2.0359375 5.40570313 1.571875 4.68640625 1.09375 3.9453125 C0 2 0 2 0 0 Z " fill="#FFFFFF" transform="translate(26,56)"/>
  <path d="M0 0 C-1.24976756 3.65316671 -1.67098753 4.78065836 -5 7 C-5.1875 4.625 -5.1875 4.625 -5 2 C-2 0 -2 0 0 0 Z " fill="#FFFFFF" transform="translate(94,4)"/>
</svg>
