<svg width="130" height="131" viewBox="0 0 130 131" fill="currentColor" xmlns="http://www.w3.org/2000/svg">
<path d="M38.271 76.9784C33.2429 71.6027 24.5969 73.6684 22.2079 80.2967C21.2504 79.2442 18.7934 76.5366 18.7243 76.4672C18.1784 75.9213 17.8775 75.1952 17.8775 74.4228V43.8299C17.8775 38.9011 13.8676 34.8911 8.93877 34.8911C4.00994 34.8911 0 38.9011 0 43.8299V87.1699C0 89.8994 1.06311 92.4654 2.99279 94.3956C3.06719 94.47 2.00256 93.4909 19.0084 109.065C19.9568 110.032 20.4786 111.308 20.4786 112.664V127.961C20.4786 129.363 21.6155 130.5 23.0176 130.5H53.5275C54.9296 130.5 56.0666 129.363 56.0666 127.961V97.0052C56.0666 96.3611 55.8218 95.741 55.3818 95.2708L38.271 76.9784ZM50.9884 125.422H25.5567V112.664C25.5567 109.935 24.4941 107.369 22.5639 105.439C22.4791 105.354 23.0755 105.905 6.54824 90.7693C5.5999 89.8024 5.07812 88.5265 5.07812 87.1702V43.8299C5.07812 41.7011 6.81002 39.9692 8.93877 39.9692C11.0675 39.9692 12.7992 41.7011 12.7992 43.8299V74.4228C12.7992 76.5114 13.5987 78.4762 15.0503 79.9711C17.3926 82.5486 29.216 95.5592 31.5717 98.1516C32.5165 99.1908 34.1222 99.2647 35.1584 98.323C36.1961 97.38 36.273 95.7743 35.3298 94.7363L27.61 86.2411C26.1643 84.2995 26.4946 81.5207 28.4449 79.9836C30.3098 78.5132 32.9398 78.7123 34.5625 80.447L50.9884 98.0074V125.422Z" fill="black"/>
<path d="M121.061 34.8911C116.133 34.8911 112.123 38.9011 112.123 43.8299V74.4228C112.123 75.1952 111.822 75.9211 111.276 76.4672C111.211 76.5328 108.443 79.5817 107.793 80.2967C105.404 73.6689 96.7577 71.6029 91.7294 76.9784L74.6184 95.2708C74.1784 95.741 73.9336 96.3611 73.9336 97.0052V127.961C73.9336 129.363 75.0706 130.5 76.4727 130.5H106.983C108.385 130.5 109.522 129.363 109.522 127.961V112.664C109.522 111.308 110.043 110.032 110.992 109.065C127.81 93.663 126.932 94.4707 127.007 94.3958C128.937 92.4656 130 89.8996 130 87.1702V43.8299C130 38.9011 125.99 34.8911 121.061 34.8911ZM124.922 87.1702C124.922 88.5265 124.4 89.8024 123.452 90.7693C106.852 105.971 107.517 105.358 107.436 105.439C105.506 107.369 104.443 109.935 104.443 112.664V125.422H79.0117V98.0076L95.4377 80.4472C97.0601 78.7133 99.6896 78.5137 101.555 79.9838C103.503 81.5187 103.838 84.2967 102.39 86.2414L94.6701 94.7366C93.7269 95.7745 93.8038 97.3802 94.8415 98.3232C95.879 99.266 97.4849 99.1901 98.4282 98.1519C100.817 95.5227 112.622 82.5328 114.95 79.9714C116.401 78.4764 117.201 76.5114 117.201 74.423V43.8299C117.201 41.7011 118.933 39.9692 121.061 39.9692C123.19 39.9692 124.922 41.7014 124.922 43.8299V87.1702Z" fill="black"/>
<path d="M86.1604 23.8599H80.2967C78.8946 23.8599 77.7577 24.9969 77.7577 26.3989V28.9484C77.7577 35.1138 73.3613 40.2706 67.5392 41.4513V28.938H70.2689C71.671 28.938 72.808 27.801 72.808 26.3989C72.808 24.9969 71.671 23.8599 70.2689 23.8599H59.9863C58.5842 23.8599 57.4472 24.9969 57.4472 26.3989C57.4472 27.801 58.5842 28.938 59.9863 28.938H62.4611V41.4513C56.639 40.2708 52.2426 35.1138 52.2426 28.9484V26.3989C52.2426 24.9969 51.1056 23.8599 49.7036 23.8599H43.8398C42.4378 23.8599 41.3008 24.9969 41.3008 26.3989C41.3008 27.801 42.4378 28.938 43.8398 28.938H47.1645V28.9484C47.1645 37.9207 53.8252 45.3634 62.4611 46.6V51.9036H59.9863C58.5842 51.9036 57.4472 53.0403 57.4472 54.4426C57.4472 55.8447 58.5842 56.9817 59.9863 56.9817H70.2689C71.671 56.9817 72.808 55.8447 72.808 54.4426C72.808 53.0403 71.671 51.9036 70.2689 51.9036H67.5392V46.6C76.1751 45.3634 82.8358 37.9204 82.8358 28.9484L86.1604 28.938C87.5625 28.938 88.6995 27.801 88.6995 26.3989C88.6995 24.9966 87.5625 23.8599 86.1604 23.8599Z" fill="black"/>
<path d="M101.333 36.8337C101.333 16.799 85.0342 0.5 64.9997 0.5C44.9653 0.5 28.666 16.799 28.666 36.8337C28.666 56.8682 44.965 73.1675 64.9997 73.1675C85.0345 73.1675 101.333 56.8682 101.333 36.8337ZM64.9997 68.0891C47.7654 68.0891 33.7441 54.0679 33.7441 36.8335C33.7441 19.5993 47.7654 5.57812 64.9997 5.57812C82.2341 5.57812 96.2553 19.5993 96.2553 36.8337C96.2553 54.0681 82.2341 68.0891 64.9997 68.0891Z" fill="black"/>
</svg>
