<svg width="131" height="131" viewBox="0 0 131 131" fill="currentColor" xmlns="http://www.w3.org/2000/svg">
<path d="M116.376 84.5486H110.512C109.11 84.5486 107.91 85.7735 107.91 87.1759V89.7256C107.91 95.8914 103.593 101.049 97.7529 102.23V89.6271H100.484C101.886 89.6271 103.023 88.49 103.023 87.0878C103.023 85.6857 101.886 84.5486 100.484 84.5486H90.2004C88.7982 84.5486 87.6612 85.6857 87.6612 87.0878C87.6612 88.49 88.7982 89.6271 90.2004 89.6271H92.6744V102.229C86.8342 101.049 82.5175 95.8911 82.5175 89.7253V87.1757C82.5175 85.7733 81.3192 84.5483 79.917 84.5483H74.0529C72.6507 84.5483 71.5137 85.6854 71.5137 87.0876C71.5137 88.4897 72.6507 89.6268 74.0529 89.6268H77.439V89.7253C77.439 98.6985 84.041 106.142 92.6744 107.379V112.734H90.2004C88.7982 112.734 87.6612 113.871 87.6612 115.273C87.6612 116.676 88.7982 117.813 90.2004 117.813H100.484C101.886 117.813 103.023 116.676 103.023 115.273C103.023 113.871 101.886 112.734 100.484 112.734H97.7529V107.379C106.386 106.142 113.051 98.6985 113.051 89.7253L116.376 89.7149C117.778 89.7149 118.915 88.5339 118.915 87.1318C118.916 85.7296 117.779 84.5486 116.376 84.5486Z" fill="black"/>
<path d="M50.3754 52.2357C48.8795 53.731 46.4467 53.731 44.9521 52.2357C43.9603 51.2444 42.3529 51.2444 41.3609 52.2357C40.3693 53.2272 40.3693 54.8351 41.3609 55.8269C44.8356 59.3019 50.4904 59.3026 53.9661 55.8269C54.958 54.8353 54.958 53.2278 53.9664 52.2359C52.9751 51.2446 51.367 51.2444 50.3754 52.2357Z" fill="black"/>
<path d="M38.7404 43.8216C40.1428 43.8216 41.2796 42.6848 41.2796 41.2824C41.2796 39.88 40.1428 38.7432 38.7404 38.7432C37.338 38.7432 36.2012 39.88 36.2012 41.2824C36.2012 42.6848 37.338 43.8216 38.7404 43.8216Z" fill="black"/>
<path d="M56.5881 43.8216C57.9904 43.8216 59.1273 42.6848 59.1273 41.2824C59.1273 39.88 57.9904 38.7432 56.5881 38.7432C55.1857 38.7432 54.0488 39.88 54.0488 41.2824C54.0488 42.6848 55.1857 43.8216 56.5881 43.8216Z" fill="black"/>
<path d="M95.1823 59.9057C90.54 59.9057 86.0723 60.8081 82.0095 62.4439V34.9092C82.0095 15.7679 66.5636 0.5 47.6168 0.5C28.6436 0.5 13.1962 15.9358 13.1962 34.9092V84.8488C5.32455 90.4098 0.5 99.4187 0.5 109.23V127.97C0.5 129.372 1.64418 130.509 3.04635 130.509H95.2145C114.68 130.509 130.5 114.673 130.5 95.2074C130.5 75.7421 114.648 59.9057 95.1823 59.9057ZM47.631 5.57847C63.7463 5.57847 76.9308 18.5984 76.9308 34.9092V64.9811C71.3444 68.4515 66.5869 73.63 63.5873 79.4702H57.8865V69.617C66.012 65.7632 71.8523 57.3697 71.8523 47.6572V31.0848C71.8523 29.6827 70.7266 28.5456 69.3245 28.5456C63.4474 28.5456 57.7857 26.4086 53.3722 22.5284L49.3379 18.9793C48.375 18.133 46.9337 18.1368 45.9759 18.9887L42.0934 22.3834C37.6643 26.3205 31.9624 28.4316 26.0366 28.4316H25.9927C24.5905 28.4316 23.3531 29.6827 23.3531 31.0848V47.6572C23.3531 57.3697 29.1934 65.7632 37.5728 69.617V79.4702H30.1994C26.0876 79.4702 22.0833 80.3859 18.2744 82.009V34.9092C18.2747 18.736 31.4581 5.57847 47.631 5.57847ZM47.6026 66.7896C37.0531 66.7896 28.4316 58.2067 28.4316 47.6569V33.5177C34.7797 32.9832 40.6829 30.4444 45.4178 26.2357L47.6485 24.2751L50.0009 26.3421C54.7028 30.4759 60.6796 32.9748 66.7738 33.5136V47.6567C66.7741 58.2069 58.1523 66.7896 47.6026 66.7896ZM42.6513 71.3239C44.1749 71.6794 45.9772 71.8683 47.7295 71.8683C49.4821 71.8683 51.0308 71.6794 52.8083 71.3239V81.1586C50.269 84.0952 45.1906 84.0988 42.6513 81.1586V71.3239ZM20.8139 125.43V115.222C20.8139 113.819 19.6768 112.682 18.2747 112.682C16.8725 112.682 15.7354 113.819 15.7354 115.222V125.43H5.57847V109.23C5.57847 95.2775 16.97 84.5487 30.1997 84.5487H38.7409C38.7721 84.5487 38.8023 84.5789 38.8333 84.5779C43.6051 89.7006 51.6986 89.7186 56.4957 84.5695C56.5267 84.5705 56.5569 84.549 56.5882 84.549H61.5369C60.4826 87.85 59.9128 91.4854 59.9128 95.1739C59.9128 107.976 66.7629 119.241 76.9899 125.431H20.8139V125.43ZM95.2143 125.43C78.5493 125.43 64.9913 111.872 64.9913 95.2074C64.9913 78.5427 78.5495 64.9844 95.2143 64.9844C111.879 64.9844 125.437 78.5427 125.437 95.2074C125.437 111.872 111.879 125.43 95.2143 125.43Z" fill="black"/>
</svg>
