<svg width="131" height="131" viewBox="0 0 131 131" fill="none" xmlns="http://www.w3.org/2000/svg">
<g clip-path="url(#clip0_143_5350)">
<path d="M127.961 27.2484C129.363 27.2484 130.5 26.1114 130.5 24.7094V14.5117C130.5 13.1094 129.363 11.9727 127.961 11.9727H3.03906C1.63674 11.9727 0.5 13.1094 0.5 14.5117V24.7094C0.5 26.1114 1.63674 27.2484 3.03906 27.2484H10.6976V68.3805C6.3048 69.5116 3.04947 73.5063 3.04947 78.2473C3.04947 82.9882 6.3048 86.9829 10.6976 88.1141V98.653H10.6562C5.05609 98.653 0.5 103.209 0.5 108.809V116.489C0.5 117.891 1.63674 119.028 3.03906 119.028H127.961C129.363 119.028 130.5 117.891 130.5 116.489V108.809C130.5 103.209 125.944 98.653 120.344 98.653H120.302V27.2484H127.961ZM5.57812 17.0508H125.422V22.1703C119.598 22.1703 16.1536 22.1703 5.57812 22.1703V17.0508ZM99.9172 73.1382C102.735 73.1382 105.027 75.4299 105.027 78.2473C105.027 81.0646 102.735 83.3564 99.9172 83.3564C97.0999 83.3564 94.8081 81.0646 94.8081 78.2473C94.8081 75.4299 97.0999 73.1382 99.9172 73.1382ZM97.3782 68.3805C95.369 68.8977 93.5998 70.0159 92.2691 71.5289C90.9384 70.0159 89.1689 68.8977 87.1597 68.3805V27.2484H97.3782V68.3805ZM38.7309 73.1382C41.5483 73.1382 43.8403 75.4299 43.8403 78.2473C43.8403 81.0646 41.5483 83.3564 38.7309 83.3564C35.9136 83.3564 33.6218 81.0646 33.6218 78.2473C33.6218 75.4299 35.9138 73.1382 38.7309 73.1382ZM41.27 68.3805V27.2484H51.4884V68.3805C49.4793 68.8977 47.7101 70.0159 46.3793 71.5289C45.0486 70.0159 43.2794 68.8977 41.27 68.3805ZM54.0275 73.1382C56.8448 73.1382 59.1366 75.4299 59.1366 78.2473C59.1366 81.0646 56.8448 83.3564 54.0275 83.3564C51.2102 83.3564 48.9184 81.0646 48.9184 78.2473C48.9184 75.4299 51.2104 73.1382 54.0275 73.1382ZM56.5666 68.3805V27.2484H66.785V68.3805C64.7756 68.8977 63.0064 70.0159 61.6757 71.5289C60.3452 70.0159 58.576 68.8977 56.5666 68.3805ZM69.3241 73.1382C72.1414 73.1382 74.4332 75.4299 74.4332 78.2473C74.4332 81.0646 72.1414 83.3564 69.3241 83.3564C66.5067 83.3564 64.2147 81.0646 64.2147 78.2473C64.2147 75.4299 66.507 73.1382 69.3241 73.1382ZM71.8631 68.3805V27.2484H82.0813V68.3805C80.0722 68.8977 78.303 70.0159 76.9723 71.5289C75.6418 70.0159 73.8726 68.8977 71.8631 68.3805ZM84.6207 73.1382C87.438 73.1382 89.73 75.4299 89.73 78.2473C89.73 81.0646 87.438 83.3564 84.6207 83.3564C81.8033 83.3564 79.5116 81.0646 79.5116 78.2473C79.5116 75.4299 81.8033 73.1382 84.6207 73.1382ZM23.8221 27.2484L15.7758 53.5935V27.2484H23.8221ZM8.1276 78.2473C8.1276 75.4327 10.415 73.143 13.2286 73.1384C16.2115 73.1694 18.3461 75.5523 18.3461 78.2473C18.3461 81.0646 16.054 83.3564 13.2367 83.3564C10.4194 83.3564 8.1276 81.0646 8.1276 78.2473ZM125.422 108.809V113.95H5.57812V108.809C5.57812 106.009 7.85617 103.731 10.6562 103.731H120.344C123.144 103.731 125.422 106.009 125.422 108.809ZM115.224 98.653H15.7758V88.1141C20.1686 86.9829 23.4242 82.988 23.4242 78.2473C23.4242 73.7722 20.522 69.9643 16.5019 68.5998L29.1315 27.2482H36.1919V68.3802C31.799 69.5114 28.5437 73.5061 28.5437 78.247C28.5437 83.8642 33.1138 88.4342 38.7309 88.4342C41.7758 88.4342 44.5108 87.0898 46.3793 84.9654C50.4441 89.587 57.605 89.5938 61.6757 84.9654C65.7488 89.5964 72.9098 89.5847 76.9723 84.9654C81.0452 89.5964 88.2063 89.5844 92.2688 84.9654C94.1371 87.0898 96.8724 88.4342 99.917 88.4342C105.534 88.4342 110.104 83.8642 110.104 78.247C110.104 73.5061 106.849 69.5111 102.456 68.3802V27.2484H115.224V98.653H115.224Z" fill="black"/>
</g>
<defs>
<clipPath id="clip0_143_5350">
<rect width="130" height="130" fill="white" transform="translate(0.5 0.5)"/>
</clipPath>
</defs>
</svg>
