<svg width="150" height="151" viewBox="0 0 150 151" fill="white" xmlns="http://www.w3.org/2000/svg">
<g clip-path="url(#clip0_143_5409)">
<path d="M139.344 89.1781C139.262 89.024 140.072 90.3341 127.442 70.108C125.464 66.3529 124.418 62.1115 124.418 57.8358C124.418 42.4423 118.398 27.9919 107.467 17.1469C84.8532 -5.28776 48.3214 -4.9699 26.1255 17.6329C8.15172 35.936 5.23269 62.843 15.9863 83.8955C23.157 97.8596 26.9476 113.479 26.9476 129.066V147.57C26.9476 149.188 28.2594 150.5 29.8771 150.5H94.2985C95.9162 150.5 97.228 149.188 97.228 147.57V126.968H110.051C117.979 126.968 124.429 120.517 124.429 112.589V100.817L132.565 100.687C135.318 100.64 137.795 99.1931 139.19 96.8175C140.581 94.4501 140.638 91.5941 139.344 89.1781ZM132.468 94.8281L121.453 95.0041C119.854 95.0299 118.57 96.3336 118.57 97.9334V112.589C118.57 117.287 114.749 121.108 110.052 121.108H94.2988C92.681 121.108 91.3692 122.42 91.3692 124.038V144.64H32.807V129.065C32.807 112.552 28.7929 96.0072 21.2015 81.2243C17.5726 74.1201 15.6839 66.4285 15.5876 58.3683C15.2952 29.6603 38.2923 6.36491 67.0587 6.36491C95.5043 6.36491 118.559 29.3676 118.559 57.836C118.559 63.1011 119.858 68.3266 122.315 72.9474C122.408 73.1193 121.618 71.8388 134.214 92.013C134.835 93.2774 133.917 94.8037 132.468 94.8281Z" fill="#1A1A1A"/>
<path d="M45.6719 48.8145C47.2899 48.8145 48.6016 47.5028 48.6016 45.8848C48.6016 44.2667 47.2899 42.9551 45.6719 42.9551C44.0539 42.9551 42.7422 44.2667 42.7422 45.8848C42.7422 47.5028 44.0539 48.8145 45.6719 48.8145Z" fill="#1A1A1A"/>
<path d="M57.4375 48.8145C59.0555 48.8145 60.3672 47.5028 60.3672 45.8848C60.3672 44.2667 59.0555 42.9551 57.4375 42.9551C55.8195 42.9551 54.5078 44.2667 54.5078 45.8848C54.5078 47.5028 55.8195 48.8145 57.4375 48.8145Z" fill="#1A1A1A"/>
<path d="M69.2031 48.8145C70.8211 48.8145 72.1328 47.5028 72.1328 45.8848C72.1328 44.2667 70.8211 42.9551 69.2031 42.9551C67.5851 42.9551 66.2734 44.2667 66.2734 45.8848C66.2734 47.5028 67.5851 48.8145 69.2031 48.8145Z" fill="#1A1A1A"/>
<path d="M77.9189 27.1562C72.8267 21.626 65.5303 18.1548 57.438 18.1548C42.0835 18.1548 29.5918 30.6465 29.5918 46.001C29.5918 52.5187 31.8476 58.751 35.9789 63.7386L32.8565 73.1057C32.2237 75.0043 33.6411 76.9616 35.6361 76.9616C36.4072 76.9616 36.0287 76.9264 50.2468 72.9044C53.488 73.7695 56.9426 74.0666 60.4833 73.6799C67.7181 81.5487 78.4518 84.3212 88.1613 81.7289C102.926 85.9058 102.035 85.7863 102.772 85.7863C104.769 85.7863 106.183 83.827 105.551 81.9304L102.429 72.5631C106.56 67.5755 108.816 61.3431 108.816 54.8254C108.816 38.3351 94.4525 25.322 77.9189 27.1562ZM51.0881 67.0535C50.5511 66.8915 49.9781 66.8876 49.4388 67.0417L40.1714 69.6895L42.0703 63.9923C42.4113 62.9702 42.1632 61.8435 41.4249 61.0584C37.5728 56.9634 35.4509 51.6164 35.4509 46.0013C35.4509 33.8775 45.3142 24.0142 57.438 24.0142C71.3491 24.0142 81.7704 36.815 78.9683 50.4648C76.3765 62.9843 63.5218 70.7975 51.0881 67.0535ZM96.9828 69.8828C96.2446 70.668 95.9964 71.7944 96.3371 72.8168L98.2364 78.514C88.4414 75.7552 88.8899 75.7534 88.1645 75.7534C87.2174 75.7534 77.0055 79.7707 67.3033 72.0501C83.1423 66.0987 89.8481 47.5645 81.9852 32.8618C93.639 33.3941 102.957 43.0424 102.957 54.8257C102.957 60.4405 100.835 65.7879 96.9828 69.8828Z" fill="#1A1A1A"/>
</g>
<defs>
<clipPath id="clip0_143_5409">
<rect width="150" height="150" fill="white" transform="translate(0 0.5)"/>
</clipPath>
</defs>
</svg>
